<svg version="1.1" id="Layer_1" xmlns="http://www.w3.org/2000/svg" xmlns:xlink="http://www.w3.org/1999/xlink" x="0px" y="0px" viewBox="0 0 28 24" style="enable-background:new 0 0 28 24;" xml:space="preserve">
<g id="business-meeting_2_">
<circle cx="2.5" cy="3.5" r="2.5" id="id_117"></circle>
<polygon points="4,14 4,7 1,7 1,17 7,17 7,24 10,24 10,14 	" id="id_118"></polygon>
<circle cx="25.5" cy="3.5" r="2.5" id="id_119"></circle>
<polygon points="24,7 24,14 18,14 18,24 21,24 21,17 27,17 27,7 	" id="id_120"></polygon>
<rect x="7" y="11" width="14" height="2" id="id_121"></rect>
<rect x="13" y="13" width="2" height="11" id="id_122"></rect>
<circle style="opacity: 0.75; fill: rgb(255, 255, 255);" cx="14" cy="2.5" r="2.5" id="id_123"></circle>
<polygon style="opacity: 0.75; fill: rgb(255, 255, 255);" points="9,6 9,10 19,10 19,6 16,6 14.5,8 13.5,8 12,6 	" id="id_124"></polygon>
</g>
</svg>