<svg version="1.1" id="Layer_1" xmlns="http://www.w3.org/2000/svg" xmlns:xlink="http://www.w3.org/1999/xlink" x="0px" y="0px" viewBox="0 0 512 512" enable-background="new 0 0 512 512" xml:space="preserve">
<g>
<g>
<path fill="#92E0EA" d="M315,290.3c-15.2-8.7-18.3-23.4-18.5-33.4c0.2-10,3.3-24.7,18.5-33.3c24.6-14,70.2-15.8,98.3-61.4
			c28.1-45.6,17.6-105.3,17.6-105.3H294.2h-58.1H99.3c0,0-10.5,59.7,17.6,105.3c28.1,45.6,73.7,47.4,98.3,61.4
			c15.2,8.7,18.3,23.4,18.5,33.3c-0.2,10-3.3,24.7-18.5,33.4c-24.6,14-70.2,15.8-98.3,61.4C88.8,397.4,99.3,457,99.3,457h136.7h58.1
			h136.7c0,0,10.5-59.7-17.6-105.3C385.3,306.1,339.6,304.3,315,290.3z" id="id_197"></path>
</g>
<g>
<path fill="#fffb03" d="M236.7,219.2c11,7.3,13.2,23.2,13.4,31.6c-0.1,8.4-2.4,33.5-13.4,40.8h56.9c-10.1-8.2-12.2-32.7-12.3-40.8
			c0.1-8.4,2.4-24.3,13.4-31.6c17.8-11.8,53-11.6,86.1-48.1c2.6-2.8,3.3-6.8,4.5-10.3H142.9c1.2,3.5,1.8,7.5,4.4,10.3
			C180,205.9,218.9,207.4,236.7,219.2z" id="id_198"></path>
</g>
<g>
<path fill="#77D0DE" d="M315,223.6c24.6-14,70.2-15.8,98.3-61.4c28.1-45.6,17.6-105.3,17.6-105.3H294.2h-28.9V457h28.9h136.7
			c0,0,10.5-59.7-17.6-105.3c-28.1-45.6-73.7-47.4-98.3-61.4c-15.2-8.7-18.3-23.4-18.5-33.4C296.7,247,299.9,232.3,315,223.6z" id="id_199"></path>
</g>
<g>
<path fill="#fffb03" d="M264.8,291.6h28.8c-10.1-8.2-12.2-32.7-12.3-40.8c0.1-8.4,2.4-24.3,13.4-31.6c17.8-11.8,53-11.6,86.1-48.1
			c2.6-2.8,3.3-6.8,4.5-10.3H264.8V291.6z" id="id_200"></path>
</g>
<g>
<g>
<path fill="#fffb03" d="M296.7,302.8c0,17.1-13.9,31-31,31c-17.1,0-31-13.9-31-31c0-17.1,13.9-31,31-31
				C282.8,271.7,296.7,285.6,296.7,302.8z" id="id_201"></path>
</g>
<g>
<path fill="#fffb03" d="M288.4,302.8c0,12.6-10.2,22.8-22.8,22.8c-12.6,0-22.8-10.2-22.8-22.8c0-12.6,10.2-22.8,22.8-22.8
				C278.2,280,288.4,290.2,288.4,302.8z" id="id_202"></path>
</g>
</g>
<g>
<g>
<path fill="#fffb03" d="M296.7,373.5c0,17.1-13.9,31-31,31c-17.1,0-31-13.9-31-31c0-17.1,13.9-31,31-31
				C282.8,342.5,296.7,356.4,296.7,373.5z" id="id_203"></path>
</g>
<g>
<path fill="#fffb03" d="M288.4,373.5c0,12.6-10.2,22.8-22.8,22.8c-12.6,0-22.8-10.2-22.8-22.8c0-12.6,10.2-22.8,22.8-22.8
				C278.2,350.8,288.4,361,288.4,373.5z" id="id_204"></path>
</g>
</g>
<g>
<g>
<path fill="#fffb03" d="M218.9,310.4c14.9,8.6,19.9,27.5,11.4,42.4c-8.6,14.8-27.5,19.9-42.4,11.4c-14.8-8.6-19.9-27.6-11.4-42.4
				C185.1,306.9,204.1,301.8,218.9,310.4z" id="id_205"></path>
</g>
<g>
<path fill="#fffb03" d="M214.8,317.6c10.9,6.3,14.6,20.2,8.3,31.1c-6.3,10.9-20.2,14.6-31.1,8.3c-10.9-6.3-14.6-20.2-8.3-31.1
				C190,315,203.9,311.3,214.8,317.6z" id="id_206"></path>
</g>
</g>
<g>
<g>
<path fill="#fffb03" d="M186.6,381.6c14.8-8.6,33.8-3.5,42.4,11.4c8.6,14.8,3.5,33.8-11.4,42.4c-14.9,8.6-33.8,3.5-42.4-11.4
				C166.7,409.1,171.8,390.2,186.6,381.6z" id="id_207"></path>
</g>
<g>
<path fill="#fffb03" d="M190.8,388.8c10.9-6.3,24.8-2.6,31.1,8.3c6.3,10.9,2.6,24.8-8.3,31.1c-10.9,6.3-24.8,2.5-31.1-8.3
				C176.1,409,179.9,395,190.8,388.8z" id="id_208"></path>
</g>
</g>
<g>
<g>
<path fill="#fffb03" d="M232.1,445.1c0-17.1,13.9-31,31-31c17.1,0,31,13.9,31,31c0,17.1-13.9,31-31,31
				C246,476.2,232.1,462.3,232.1,445.1z" id="id_209"></path>
</g>
<g>
<path fill="#fffb03" d="M240.4,445.1c0-12.6,10.2-22.8,22.8-22.8c12.6,0,22.8,10.2,22.8,22.8c0,12.6-10.2,22.8-22.8,22.8
				C250.6,467.9,240.4,457.7,240.4,445.1z" id="id_210"></path>
</g>
</g>
<g>
<g>
<path fill="#fffb03" d="M309.9,437.5c-14.9-8.6-19.9-27.6-11.4-42.4c8.6-14.8,27.6-19.9,42.4-11.4c14.9,8.6,19.9,27.5,11.4,42.4
				C343.7,441,324.8,446.1,309.9,437.5z" id="id_211"></path>
</g>
<g>
<path fill="#fffb03" d="M314.1,430.3c-10.9-6.3-14.6-20.2-8.3-31.1c6.3-10.9,20.2-14.6,31.1-8.3c10.9,6.3,14.6,20.2,8.3,31.1
				C338.8,432.9,324.9,436.6,314.1,430.3z" id="id_212"></path>
</g>
</g>
<g>
<g>
<path fill="#fffb03" d="M274.3,450.4c0,2.4-0.9,4.3-2.6,5.8c-1.7,1.5-4.1,2.3-7.2,2.6v4.6h-3.1v-4.5c-3.7-0.1-6.9-0.7-9.6-1.9
				v-5.9c1.3,0.6,2.9,1.2,4.7,1.7c1.8,0.5,3.5,0.8,4.9,0.9v-7l-1.5-0.6c-3-1.2-5.1-2.4-6.3-3.8c-1.2-1.4-1.9-3.1-1.9-5.1
				c0-2.2,0.9-4,2.6-5.4c1.7-1.4,4.1-2.3,7.1-2.6v-3.4h3.1v3.4c3.4,0.2,6.5,0.8,9.3,2.1l-2.1,5.3c-2.3-1-4.7-1.5-7.2-1.8v6.6
				c2.9,1.1,5,2.1,6.2,2.9c1.2,0.8,2.1,1.7,2.7,2.7C274,447.9,274.3,449,274.3,450.4z M258.5,437c0,0.7,0.2,1.2,0.7,1.6
				c0.5,0.4,1.2,0.9,2.2,1.3v-5.3C259.5,435,258.5,435.8,258.5,437z M267.5,450.7c0-0.6-0.3-1.2-0.8-1.6c-0.5-0.4-1.3-0.9-2.3-1.4
				v5.6C266.5,453,267.5,452.1,267.5,450.7z" id="id_213"></path>
</g>
</g>
<g>
<g>
<path fill="#fffb03" d="M342.2,366.3c-14.8,8.6-33.8,3.5-42.4-11.4c-8.6-14.8-3.5-33.8,11.4-42.4c14.8-8.6,33.8-3.5,42.4,11.4
				C362.1,338.8,357,357.7,342.2,366.3z" id="id_214"></path>
</g>
<g>
<path fill="#fffb03" d="M338,359.1c-10.9,6.3-24.8,2.6-31.1-8.3c-6.3-10.9-2.6-24.8,8.3-31.1c10.9-6.3,24.8-2.6,31.1,8.3
				C352.7,338.9,348.9,352.9,338,359.1z" id="id_215"></path>
</g>
</g>
<g>
<g>
<g>
<rect x="77.8" y="7" fill="#F77B55" width="370" height="52.1" id="id_216"></rect>
</g>
<g>
<rect x="77.8" y="7" fill="#FF916E" width="370" height="37.2" id="id_217"></rect>
</g>
</g>
<g>
<g>
<rect x="77.8" y="454.8" fill="#F77B55" width="370" height="52.1" id="id_218"></rect>
</g>
<g>
<rect x="77.8" y="469.7" fill="#FF916E" width="370" height="37.2" id="id_219"></rect>
</g>
</g>
</g>
<g>
<g>
<path fill="#fffb03" d="M277.7,307.6c0,2.4-0.9,4.3-2.6,5.8c-1.7,1.4-4.1,2.3-7.3,2.6v4.6h-3.1V316c-3.7-0.1-6.9-0.7-9.6-1.9
				v-5.9c1.3,0.6,2.9,1.2,4.7,1.7c1.8,0.5,3.5,0.8,4.9,0.9v-7l-1.5-0.6c-3-1.2-5.1-2.4-6.3-3.8c-1.2-1.4-1.9-3.1-1.9-5.1
				c0-2.2,0.8-4,2.6-5.4c1.7-1.4,4.1-2.3,7.1-2.5v-3.5h3.1v3.4c3.4,0.1,6.6,0.8,9.3,2.1l-2.1,5.3c-2.3-1-4.7-1.5-7.2-1.8v6.6
				c2.9,1.1,5,2.1,6.3,2.9c1.2,0.8,2.1,1.7,2.7,2.7C277.4,305.1,277.7,306.3,277.7,307.6z M261.9,294.3c0,0.7,0.2,1.2,0.7,1.6
				c0.5,0.4,1.2,0.9,2.2,1.3v-5.3C262.9,292.2,261.9,293,261.9,294.3z M271,307.9c0-0.6-0.2-1.2-0.8-1.6c-0.5-0.4-1.3-0.9-2.3-1.4
				v5.6C269.9,310.2,271,309.4,271,307.9z" id="id_220"></path>
</g>
</g>
<g>
<g>
<path fill="#fffb03" d="M215,342.4c0,2.4-0.9,4.3-2.6,5.8c-1.7,1.5-4.1,2.3-7.3,2.6v4.6h-3.1v-4.5c-3.7-0.1-6.9-0.7-9.6-1.9v-6
				c1.3,0.6,2.9,1.2,4.7,1.7c1.8,0.5,3.5,0.8,4.9,0.9v-7l-1.5-0.6c-3-1.2-5.1-2.4-6.3-3.8c-1.2-1.4-1.9-3.1-1.9-5.1
				c0-2.2,0.8-4,2.6-5.4c1.7-1.4,4.1-2.3,7.1-2.6v-3.4h3.1v3.4c3.4,0.2,6.5,0.8,9.3,2.1l-2.1,5.3c-2.3-1-4.7-1.5-7.2-1.8v6.7
				c2.9,1.1,5,2.1,6.3,2.9c1.2,0.8,2.1,1.7,2.7,2.7C214.7,339.9,215,341,215,342.4z M199.2,329c0,0.7,0.2,1.2,0.7,1.6
				c0.5,0.4,1.2,0.9,2.2,1.3v-5.3C200.2,327,199.2,327.7,199.2,329z M208.3,342.7c0-0.6-0.3-1.2-0.8-1.6c-0.5-0.4-1.3-0.9-2.3-1.4
				v5.6C207.2,345,208.3,344.1,208.3,342.7z" id="id_221"></path>
</g>
</g>
<g>
<g>
<path fill="#fffb03" d="M277.1,379.6c0,2.4-0.9,4.3-2.6,5.8c-1.7,1.5-4.1,2.3-7.3,2.6v4.6h-3.1V388c-3.7-0.1-6.9-0.7-9.6-1.9
				v-5.9c1.3,0.6,2.9,1.2,4.7,1.7c1.8,0.5,3.5,0.8,4.9,0.9v-7l-1.5-0.6c-3-1.2-5.1-2.4-6.3-3.8c-1.2-1.4-1.9-3.1-1.9-5.1
				c0-2.2,0.9-4,2.6-5.4c1.7-1.4,4.1-2.3,7.1-2.6v-3.4h3.1v3.4c3.4,0.1,6.6,0.8,9.3,2.1l-2.1,5.3c-2.3-1-4.7-1.5-7.2-1.8v6.6
				c2.9,1.1,5,2.1,6.3,2.9c1.3,0.8,2.2,1.7,2.7,2.7C276.8,377.1,277.1,378.3,277.1,379.6z M261.3,366.3c0,0.7,0.2,1.2,0.7,1.6
				c0.5,0.4,1.2,0.9,2.2,1.3v-5.3C262.2,364.2,261.3,365,261.3,366.3z M270.3,379.9c0-0.6-0.3-1.2-0.8-1.6c-0.5-0.4-1.3-0.9-2.3-1.4
				v5.6C269.3,382.2,270.3,381.4,270.3,379.9z" id="id_222"></path>
</g>
</g>
<g>
<g>
<path fill="#fffb03" d="M338.9,344.8c0,2.4-0.9,4.3-2.6,5.8c-1.7,1.4-4.2,2.3-7.3,2.6v4.6h-3.1v-4.5c-3.7-0.1-6.9-0.7-9.6-1.9
				v-5.9c1.3,0.6,2.9,1.2,4.7,1.7c1.8,0.5,3.5,0.8,4.9,0.9v-7l-1.5-0.6c-3-1.2-5.1-2.4-6.3-3.8c-1.3-1.4-1.9-3.1-1.9-5.1
				c0-2.2,0.8-4,2.6-5.4c1.7-1.4,4.1-2.3,7.1-2.6v-3.5h3.1v3.4c3.4,0.2,6.5,0.8,9.3,2.1l-2.1,5.3c-2.4-1-4.7-1.5-7.2-1.8v6.6
				c2.9,1.1,5,2.1,6.3,2.9c1.2,0.8,2.1,1.7,2.7,2.7C338.6,342.4,338.9,343.5,338.9,344.8z M323,331.5c0,0.7,0.2,1.2,0.7,1.6
				c0.5,0.4,1.2,0.9,2.2,1.3v-5.3C324,329.4,323,330.2,323,331.5z M332.1,345.2c0-0.6-0.2-1.2-0.8-1.6c-0.5-0.4-1.3-0.9-2.3-1.4v5.6
				C331.1,347.5,332.1,346.6,332.1,345.2z" id="id_223"></path>
</g>
</g>
<g>
<g>
<path fill="#fffb03" d="M337.3,416.5c0,2.4-0.9,4.3-2.6,5.8c-1.7,1.4-4.1,2.3-7.2,2.6v4.6h-3.1V425c-3.7-0.1-6.9-0.7-9.6-1.9v-6
				c1.3,0.6,2.9,1.2,4.7,1.7c1.8,0.5,3.5,0.8,4.9,0.9v-7l-1.5-0.6c-3-1.2-5.1-2.4-6.3-3.8c-1.2-1.4-1.9-3.1-1.9-5.1
				c0-2.2,0.8-4,2.6-5.4c1.7-1.4,4.1-2.2,7.1-2.6v-3.4h3.1v3.4c3.4,0.2,6.6,0.8,9.3,2.1l-2.1,5.3c-2.3-1-4.7-1.5-7.2-1.8v6.7
				c2.9,1.1,5,2.1,6.3,2.9c1.2,0.8,2.1,1.7,2.7,2.7C337,414.1,337.3,415.2,337.3,416.5z M321.5,403.2c0,0.7,0.2,1.2,0.7,1.6
				c0.5,0.4,1.2,0.9,2.2,1.3v-5.3C322.5,401.1,321.5,401.9,321.5,403.2z M330.5,416.9c0-0.6-0.3-1.2-0.8-1.6
				c-0.5-0.4-1.3-0.9-2.3-1.4v5.6C329.5,419.2,330.5,418.3,330.5,416.9z" id="id_224"></path>
</g>
</g>
<g>
<g>
<path fill="#fffb03" d="M213.2,413.7c0,2.4-0.9,4.3-2.6,5.8c-1.7,1.5-4.2,2.3-7.3,2.6v4.6h-3.1v-4.5c-3.7-0.1-6.9-0.7-9.6-1.9
				v-5.9c1.3,0.6,2.9,1.2,4.7,1.7c1.8,0.5,3.5,0.8,4.9,0.9v-7l-1.5-0.6c-3-1.2-5.1-2.4-6.3-3.8c-1.2-1.4-1.9-3.1-1.9-5.1
				c0-2.2,0.8-4,2.6-5.4c1.7-1.4,4.1-2.3,7.1-2.6V389h3.1v3.4c3.4,0.1,6.5,0.8,9.3,2.1l-2.1,5.3c-2.3-1-4.7-1.5-7.2-1.8v6.6
				c2.9,1.1,5,2.1,6.2,2.9c1.2,0.8,2.1,1.7,2.7,2.7C212.9,411.3,213.2,412.4,213.2,413.7z M197.3,400.4c0,0.7,0.2,1.2,0.7,1.6
				c0.5,0.4,1.2,0.9,2.2,1.3v-5.3C198.3,398.3,197.3,399.1,197.3,400.4z M206.4,414.1c0-0.6-0.3-1.2-0.8-1.6
				c-0.5-0.4-1.3-0.9-2.3-1.4v5.6C205.4,416.4,206.4,415.5,206.4,414.1z" id="id_225"></path>
</g>
</g>
<g>
<rect x="175.8" y="89.2" fill="#FFFFFF" width="22.3" height="53.4" id="id_226"></rect>
</g>
<g>
<rect x="112.5" y="14.7" fill="#FFFFFF" width="158.9" height="9.9" id="id_227"></rect>
</g>
<g>
<rect x="105.1" y="482.8" fill="#FFFFFF" width="232.2" height="9.9" id="id_228"></rect>
</g>
</g>
</svg>