<?xml version="1.0" encoding="UTF-8" standalone="no"?> <svg width="512" height="512" viewBox="0 0 512 512" fill="none" xmlns="http://www.w3.org/2000/svg">
<path d="M280 496H232C218.767 496 208 485.233 208 472C208 459.794 217.159 449.688 228.964 448.191L219.575 420.024C197.836 415.204 177.002 405.948 158.791 393.023L131.807 407.243C134.374 415.519 132.356 424.898 125.892 431.362C121.358 435.895 115.331 438.392 108.921 438.392C102.511 438.392 96.483 435.895 91.95 431.362L80.637 420.049C76.104 415.515 73.607 409.488 73.607 403.078C73.607 396.667 76.104 390.64 80.637 386.107C87.1 379.642 96.478 377.623 104.757 380.191L118.977 353.207C106.052 334.997 96.796 314.163 91.976 292.423L63.805 283.033C63.106 288.458 60.554 293.561 56.565 297.366C51.772 301.939 45.477 304.292 38.85 303.972C26.037 303.37 16 292.641 16 279.548V232C16 225.471 18.71 219.141 23.435 214.633C28.228 210.061 34.514 207.714 41.15 208.027C52.81 208.576 62.171 217.51 63.761 228.98L91.975 219.576C96.747 198.055 105.866 177.416 118.584 159.342L102.567 132.411C94.798 134.073 86.532 131.788 80.637 125.892C76.104 121.359 73.607 115.332 73.607 108.922C73.607 102.512 76.104 96.484 80.637 91.951L91.951 80.638C96.484 76.105 102.511 73.608 108.921 73.608C115.331 73.608 121.359 76.105 125.892 80.638C131.788 86.534 134.072 94.801 132.411 102.568L159.342 118.585C177.416 105.867 198.055 96.749 219.576 91.976L228.965 63.809C217.159 62.312 208 52.206 208 40C208 26.767 218.767 16 232 16H280C293.233 16 304 26.767 304 40C304 52.206 294.841 62.312 283.036 63.809L292.425 91.976C314.165 96.797 334.999 106.052 353.209 118.977L379.825 104.952C377.132 96.97 378.961 87.786 385.31 81.437L386.908 79.839C395.825 70.922 410.334 70.922 419.251 79.839L432.162 92.75C441.079 101.667 441.079 116.176 432.162 125.093L430.564 126.691C424.215 133.041 415.032 134.869 407.049 132.177L393.024 158.792C405.949 177.003 415.205 197.837 420.025 219.576L448.239 228.98C449.829 217.51 459.19 208.576 470.85 208.027C477.48 207.715 483.772 210.061 488.565 214.633C493.29 219.141 496 225.471 496 232V280C496 286.529 493.29 292.859 488.565 297.367C483.772 301.94 477.478 304.293 470.85 303.973C459.19 303.424 449.829 294.49 448.239 283.02L420.025 292.424C415.253 313.943 406.133 334.584 393.416 352.658L408.677 378.319C410.51 377.781 412.429 377.504 414.392 377.504C419.787 377.504 424.859 379.605 428.674 383.42L434.05 388.796C437.865 392.611 439.966 397.684 439.966 403.079C439.966 408.474 437.865 413.546 434.05 417.361L417.36 434.051C413.545 437.866 408.473 439.967 403.078 439.967C397.683 439.967 392.611 437.866 388.796 434.051L383.42 428.674C379.605 424.86 377.504 419.787 377.504 414.392C377.504 412.429 377.782 410.509 378.319 408.677L352.658 393.416C334.584 406.133 313.943 415.253 292.424 420.025L283.035 448.192C294.841 449.688 304 459.794 304 472C304 485.233 293.233 496 280 496ZM471.603 224.009C467.411 224.206 464 227.994 464 232.451V240C464 242.572 462.764 244.986 460.678 246.49C458.592 247.993 455.909 248.403 453.47 247.59L410.594 233.298C407.848 232.383 405.811 230.057 405.267 227.215C400.921 204.54 391.229 182.791 377.238 164.319C375.363 161.843 375.09 158.507 376.537 155.759L396.8 117.306C397.985 115.057 400.168 113.506 402.68 113.126C405.194 112.745 407.737 113.581 409.534 115.378C412.212 118.057 416.571 118.057 419.25 115.378L420.848 113.78C422.145 112.482 422.86 110.757 422.86 108.922C422.86 107.087 422.145 105.362 420.848 104.064L407.937 91.153C406.639 89.856 404.914 89.141 403.079 89.141C401.244 89.141 399.518 89.856 398.221 91.153L396.623 92.751C393.944 95.43 393.944 99.789 396.623 102.467C398.42 104.264 399.256 106.808 398.876 109.321C398.496 111.834 396.944 114.016 394.695 115.201L356.242 135.464C353.494 136.912 350.157 136.639 347.682 134.763C329.212 120.772 307.462 111.079 284.786 106.733C281.944 106.189 279.618 104.151 278.703 101.406L264.411 58.53C263.598 56.091 264.007 53.409 265.511 51.322C267.014 49.236 269.428 48 272 48H280C284.411 48 288 44.411 288 40C288 35.589 284.411 32 280 32H232C227.589 32 224 35.589 224 40C224 44.411 227.589 48 232 48H240C242.572 48 244.986 49.236 246.49 51.322C247.994 53.408 248.403 56.09 247.59 58.53L233.298 101.406C232.383 104.152 230.057 106.188 227.215 106.733C204.655 111.057 183.005 120.674 164.603 134.545C162.008 136.5 158.491 136.693 155.698 135.033L118.442 112.875C116.599 111.778 115.273 109.988 114.762 107.905C114.251 105.822 114.598 103.621 115.725 101.796C117.681 98.629 117.21 94.581 114.581 91.952C113.07 90.441 111.061 89.609 108.924 89.609C106.787 89.609 104.778 90.441 103.268 91.952L91.954 103.266C90.443 104.777 89.611 106.786 89.611 108.923C89.611 111.06 90.443 113.069 91.954 114.579C94.583 117.208 98.632 117.679 101.798 115.724C103.623 114.597 105.823 114.249 107.907 114.761C109.99 115.272 111.781 116.598 112.877 118.441L135.035 155.697C136.695 158.489 136.503 162.008 134.547 164.602C120.676 183.004 111.06 204.655 106.735 227.214C106.19 230.056 104.153 232.382 101.408 233.297L58.53 247.589C56.091 248.403 53.409 247.993 51.322 246.489C49.236 244.986 48 242.572 48 240V232.452C48 227.994 44.589 224.207 40.397 224.01C38.178 223.902 36.077 224.687 34.48 226.211C32.88 227.735 32 229.792 32 232V279.548C32 284.006 35.411 287.793 39.603 287.99C41.812 288.098 43.923 287.313 45.52 285.789C47.119 284.265 48 282.208 48 280V272C48 269.428 49.236 267.014 51.322 265.51C53.408 264.006 56.09 263.598 58.53 264.41L101.406 278.702C104.152 279.617 106.189 281.943 106.733 284.785C111.079 307.461 120.772 329.211 134.763 347.681C136.638 350.157 136.911 353.493 135.464 356.241L115.173 394.746C114.033 396.909 111.967 398.432 109.564 398.88C107.161 399.328 104.685 398.655 102.841 397.049C99.688 394.302 94.904 394.466 91.95 397.42C88.831 400.539 88.831 405.615 91.95 408.734L103.264 420.047C104.775 421.558 106.784 422.39 108.921 422.39C111.058 422.39 113.067 421.558 114.577 420.047C117.531 417.093 117.694 412.31 114.949 409.157C113.344 407.313 112.669 404.837 113.117 402.434C113.566 400.031 115.089 397.965 117.252 396.825L155.757 376.534C158.504 375.086 161.84 375.36 164.317 377.235C182.789 391.226 204.538 400.919 227.213 405.264C230.055 405.808 232.381 407.846 233.296 410.591L247.588 453.467C248.401 455.906 247.992 458.588 246.488 460.675C244.985 462.761 242.57 463.997 239.998 463.997H231.998C227.587 463.997 223.998 467.586 223.998 471.997C223.998 476.408 227.587 479.997 231.998 479.997H279.998C284.409 479.997 287.998 476.408 287.998 471.997C287.998 467.586 284.409 463.997 279.998 463.997H271.998C269.426 463.997 267.012 462.761 265.508 460.675C264.004 458.589 263.595 455.907 264.408 453.467L278.7 410.591C279.615 407.845 281.941 405.808 284.783 405.264C307.342 400.941 328.992 391.324 347.395 377.452C349.989 375.496 353.506 375.305 356.3 376.964L393.162 398.887C395.284 400.149 396.704 402.32 397.011 404.77C397.318 407.22 396.476 409.674 394.73 411.419C393.937 412.212 393.501 413.266 393.501 414.388C393.501 415.509 393.938 416.563 394.73 417.356L400.107 422.733C400.9 423.526 401.954 423.962 403.075 423.962C404.197 423.962 405.251 423.525 406.044 422.733L422.734 406.043C424.371 404.406 424.371 401.743 422.734 400.105L417.357 394.729C416.564 393.936 415.51 393.499 414.389 393.499C413.267 393.499 412.213 393.936 411.42 394.728C409.674 396.474 407.22 397.315 404.771 397.009C402.321 396.703 400.15 395.282 398.888 393.16L376.965 356.298C375.305 353.506 375.497 349.987 377.453 347.393C391.324 328.99 400.941 307.339 405.265 284.781C405.809 281.939 407.847 279.613 410.592 278.698L453.468 264.406C455.908 263.594 458.589 264.002 460.676 265.506C462.762 267.009 463.998 269.424 463.998 271.996V279.544C463.998 284.002 467.409 287.789 471.601 287.986C473.809 288.094 475.921 287.309 477.518 285.785C479.117 284.26 479.997 282.203 479.997 279.995V231.995C479.997 229.787 479.117 227.73 477.518 226.205C475.923 224.686 473.813 223.902 471.603 224.009Z" fill="white"/>
<path d="M164 288C150.57 288 137.849 284.128 128.182 277.097C117.747 269.508 112 259.175 112 248C112 236.825 117.747 226.492 128.182 218.903C137.849 211.872 150.57 208 164 208C177.43 208 190.151 211.872 199.818 218.903C210.253 226.492 216 236.825 216 248C216 259.175 210.253 269.508 199.818 277.097C190.151 284.128 177.43 288 164 288ZM164 224C144.486 224 128 234.991 128 248C128 261.009 144.486 272 164 272C183.514 272 200 261.009 200 248C200 234.991 183.514 224 164 224Z" fill="white"/>
<path d="M348 232C332.299 232 320 214.43 320 192C320 169.57 332.299 152 348 152C363.701 152 376 169.57 376 192C376 214.43 363.701 232 348 232ZM348 168C342.335 168 336 178.264 336 192C336 205.736 342.335 216 348 216C353.665 216 360 205.736 360 192C360 178.264 353.665 168 348 168Z" fill="white"/>
<path d="M200 384C177.944 384 160 367.851 160 348C160 328.149 177.944 312 200 312C222.056 312 240 328.149 240 348C240 367.851 222.056 384 200 384ZM200 328C186.767 328 176 336.972 176 348C176 359.028 186.767 368 200 368C213.233 368 224 359.028 224 348C224 336.972 213.233 328 200 328Z" fill="white"/>
<path d="M268 168C252.561 168 240 157.234 240 144C240 130.766 252.561 120 268 120C283.439 120 296 130.766 296 144C296 157.234 283.439 168 268 168ZM268 136C261.607 136 256 139.738 256 144C256 148.262 261.607 152 268 152C274.393 152 280 148.262 280 144C280 139.738 274.393 136 268 136Z" fill="white"/>
<path d="M312 368C281.122 368 256 342.878 256 312C256 307.242 256.596 302.556 257.776 297.997C246.917 290.24 240 275.877 240 260C240 235.738 256.149 216 276 216C294.748 216 310.194 233.605 311.853 256C311.902 256 311.951 256 312 256C342.878 256 368 281.122 368 312C368 342.878 342.878 368 312 368ZM276 232C265.159 232 256 244.822 256 260C256 272.291 261.948 283.341 270.464 286.873C274.504 288.548 276.45 293.158 274.832 297.222C272.953 301.942 272 306.914 272 312C272 334.056 289.944 352 312 352C334.056 352 352 334.056 352 312C352 289.944 334.056 272 312 272C309.742 272 307.427 272.203 305.12 272.603C302.655 273.032 300.129 272.279 298.299 270.573C296.468 268.867 295.541 266.402 295.795 263.911C295.932 262.567 296.001 261.251 296.001 260C296 244.822 286.841 232 276 232Z" fill="white"/>
<path d="M272.021 264C267.603 264 264.016 260.418 264.016 256C264.016 251.582 267.593 248 272.011 248H272.021C276.439 248 280.021 251.582 280.021 256C280.021 260.418 276.439 264 272.021 264Z" fill="white"/>
<path d="M312 336C298.766 336 288 325.234 288 312C288 298.766 298.766 288 312 288C325.234 288 336 298.766 336 312C336 325.234 325.234 336 312 336ZM312 304C307.589 304 304 307.589 304 312C304 316.411 307.589 320 312 320C316.411 320 320 316.411 320 312C320 307.589 316.411 304 312 304Z" fill="white"/>
<path d="M144.021 312C139.603 312 136.016 308.418 136.016 304C136.016 299.582 139.593 296 144.011 296H144.021C148.439 296 152.021 299.582 152.021 304C152.021 308.418 148.439 312 144.021 312Z" fill="white"/>
<path d="M248.021 384C243.603 384 240.016 380.418 240.016 376C240.016 371.582 243.593 368 248.011 368H248.021C252.439 368 256.021 371.582 256.021 376C256.021 380.418 252.439 384 248.021 384Z" fill="white"/>
<path d="M192 200C178.766 200 168 189.234 168 176C168 162.766 178.766 152 192 152C205.234 152 216 162.766 216 176C216 189.234 205.234 200 192 200ZM192 168C187.589 168 184 171.589 184 176C184 180.411 187.589 184 192 184C196.411 184 200 180.411 200 176C200 171.589 196.411 168 192 168Z" fill="white"/>
</svg>
