<?xml version="1.0" encoding="UTF-8" standalone="no"?> <svg xmlns="http://www.w3.org/2000/svg" xmlns:xlink="http://www.w3.org/1999/xlink" viewBox="0 0 64 64"><defs><style>.cls-1{fill:url(#linear-gradient);}</style><linearGradient id="linear-gradient" x1="8.53" y1="32" x2="55.39" y2="32" gradientUnits="userSpaceOnUse"><stop offset="0" stop-color="#17a6d7"/><stop offset="1" stop-color="#9d31fe"/></linearGradient></defs><g><path class="cls-1" d="M39.47,34c21.23-.88,21.22-31.12,0-32h-14a2,2,0,0,0-2,2V30H10.53a2,2,0,0,0,0,4H23.47v5.77H10.53a2,2,0,0,0,0,4H23.47V60a2,2,0,0,0,4,0V43.77h12a2,2,0,0,0,0-4h-12V34Zm-12-28h12a12,12,0,0,1,0,24h-12Z"/></g></svg>
