<svg version="1.1" xmlns="http://www.w3.org/2000/svg" xmlns:xlink="http://www.w3.org/1999/xlink" x="0px" y="0px" width="520px" height="520px" viewBox="0 0 520 520" style="enable-background:new 0 0 520 520;" xml:space="preserve">
<g id="_x34_60_x2C__Agreement_x2C__Collaboration_x2C__Partnership">
<g>
<path style="fill:#68CA44;" d="M308.839,67.407l0.041-0.041c-20.1-19.609-48.838-24.614-73.289-15.528l0.044,0.044
			c-9.744,3.657-18.482,9.439-25.647,16.772l-0.076-0.076c-16.3,16.707-23.159,40.293-18.429,63.157
			c6.25,30.15,31.667,52.676,62.136,55.421c41.351,3.762,76.594-29,76.379-70.021C329.916,98.13,322.138,80.378,308.839,67.407z" id="id_217"></path>
<rect x="30" y="447.456" style="fill:#57606F;" width="460" height="25.09" id="id_218"></rect>
<path style="fill:#FF5987;" d="M450,77.366c13.81,0,25,11.19,25,25s-11.19,25-25,25c-13.811,0-25-11.19-25-25
			S436.189,77.366,450,77.366z" id="id_219"></path>
<path style="fill:#FF5987;" d="M80,107.366c8.28,0,15,6.72,15,15c0,8.28-6.72,15-15,15s-15-6.72-15-15
			C65,114.086,71.72,107.366,80,107.366z" id="id_220"></path>
<path style="fill:#D0DCE7;" d="M345.609,51.846c5.851,5.86,5.851,15.36,0,21.22l-19.989,19.98l-40.12,40.12l-21.21,21.21
			l-21.21-21.21l-10.61-10.61c-2.93-2.92-4.39-6.76-4.39-10.6s1.46-7.68,4.39-10.61c5.86-5.86,15.36-5.86,21.21,0l10.61,10.61
			l44.59-44.59l15.51-15.52c2.93-2.93,6.771-4.39,10.61-4.39S342.68,48.916,345.609,51.846z" id="id_221"></path>
<path style="fill:#32438C;" d="M402.72,323.836c3.24,4.45,6.09,7.271,10.3,10.8c0.311,0.261,0.631,0.53,0.95,0.78l-16.42,35.28
			l-17.649-24.04l17.649-17.65L402.72,323.836z" id="id_222"></path>
<path style="fill:#32438C;" d="M379.9,346.656l-18.41,24.04l-15.66-35.271c4.55-3.67,7.77-6.81,11.239-11.59l4.421,4.41
			L379.9,346.656z" id="id_223"></path>
<path style="fill:#32438C;" d="M162.93,323.836c3.24,4.45,6.09,7.271,10.29,10.8c0.31,0.261,0.63,0.53,0.95,0.78l-16.42,35.28
			l-17.65-24.04l17.65-17.65L162.93,323.836z" id="id_224"></path>
<path style="fill:#32438C;" d="M140.1,346.656l-18.41,24.04l-15.66-35.271c4.56-3.67,7.77-6.8,11.25-11.59l4.41,4.41
			L140.1,346.656z" id="id_225"></path>
<path style="fill:#4A78FF;" d="M455,422.456H305h-35v-9.69c0-9.109,2.72-20.79,7.52-31.09c4.82-10.3,11.721-19.22,20.101-22.81
			l32.29-13.84c5.659-2.431,10.909-5.59,15.649-9.38c0.091-0.07,0.181-0.15,0.271-0.221l15.66,35.271l18.41-24.04l17.649,24.04
			l16.42-35.28c4.8,3.89,10.14,7.13,15.92,9.61l32.28,13.83c16.76,7.18,27.62,35.68,27.62,53.909v9.69H455z" id="id_226"></path>
<path style="fill:#4A78FF;" d="M215,422.456H65H30.21v-9.69c0-9.109,2.71-20.79,7.53-31.09c4.8-10.3,11.71-19.22,20.09-22.81
			l32.28-13.84c5.66-2.431,10.92-5.59,15.65-9.38c0.09-0.07,0.18-0.15,0.27-0.221l15.66,35.271l18.41-24.04l17.65,24.04l16.42-35.28
			c4.8,3.89,10.15,7.13,15.92,9.61l32.29,13.83c16.76,7.18,27.62,35.68,27.62,53.909v9.69H215z" id="id_227"></path>
<path style="fill:#F3CC97;" d="M397.55,310.376v18.63l-17.649,17.65l-18.41-18.41v-18.18l0.039-0.08
			c5.61,2.439,11.801,3.79,18.301,3.79c6.26,0,12.229-1.25,17.67-3.521L397.55,310.376z" id="id_228"></path>
<path style="fill:#F3CC97;" d="M157.75,329.006l-17.65,17.65l-18.41-18.41v-18.18l0.04-0.08c5.61,2.439,11.8,3.79,18.3,3.79
			c6.26,0,12.23-1.25,17.67-3.521l0.05,0.12V329.006z" id="id_229"></path>
<path style="fill:#FFE2B6;" d="M425.79,227.356v40.46c0,12.699-5.15,24.18-13.46,32.5c-4.21,4.22-9.24,7.609-14.83,9.939
			c-5.44,2.271-11.41,3.521-17.67,3.521c-6.5,0-12.69-1.351-18.301-3.79c-16.279-7.07-27.659-23.29-27.659-42.17v-46.72
			c43.88,9.95,63.06-5.02,63.06-5.02l-1.2,10.31l20.65-8.08l-2.96,13.26L425.79,227.356z" id="id_230"></path>
<path style="fill:#FFE2B6;" d="M185.99,227.356v40.46c0,12.699-5.14,24.18-13.46,32.5c-4.21,4.22-9.24,7.609-14.83,9.939
			c-5.44,2.271-11.41,3.521-17.67,3.521c-6.5,0-12.69-1.351-18.3-3.79c-16.28-7.07-27.66-23.29-27.66-42.17v-46.72
			c43.89,9.95,63.07-5.02,63.07-5.02l-1.2,10.31l20.64-8.08l-2.95,13.26L185.99,227.356z" id="id_231"></path>
<path style="fill:#C86D36;" d="M425.79,227.356l-12.37,4.21l2.96-13.26l-20.65,8.08l1.2-10.31c0,0-19.18,14.97-63.06,5.02
			c-6.521-1.48-13.58-3.51-21.21-6.22c27.77-61.9,96.84-33.65,96.84-33.65v-8.86c0,0,36.83,11.28,23.569,73.19L425.79,227.356z" id="id_232"></path>
<path style="fill:#C86D36;" d="M169.7,172.366c0,0,36.83,11.28,23.57,73.19l-7.28-18.2l-12.36,4.21l2.95-13.26l-20.64,8.08
			l1.2-10.31c0,0-19.18,14.97-63.07,5.02c-6.52-1.48-13.58-3.51-21.21-6.22c27.78-61.9,96.84-33.65,96.84-33.65V172.366z" id="id_233"></path>
<circle cx="467.5" cy="254.866" r="7.5" id="id_234"></circle>
<circle cx="382.5" cy="79.866" r="7.5" id="id_235"></circle>
<circle cx="295" cy="259.866" r="7.5" id="id_236"></circle>
<circle cx="232.5" cy="224.866" r="7.5" id="id_237"></circle>
<circle cx="147.5" cy="94.866" r="7.5" id="id_238"></circle>
<circle cx="52.5" cy="294.866" r="7.5" id="id_239"></circle>
<circle cx="47.5" cy="184.866" r="7.5" id="id_240"></circle>
<path d="M397.55,334.006c-2.762,0-5-2.238-5-5v-18.63c0-2.762,2.238-5,5-5c2.761,0,5,2.238,5,5v18.63
			C402.55,331.768,400.311,334.006,397.55,334.006z" id="id_241"></path>
<path d="M361.49,333.246c-2.762,0-5-2.238-5-5v-18.18c0-2.762,2.238-5,5-5c2.761,0,5,2.238,5,5v18.18
			C366.49,331.008,364.251,333.246,361.49,333.246z" id="id_242"></path>
<path d="M489.79,427.456H270c-2.762,0-5-2.238-5-5v-9.69c0-10.057,2.986-22.469,7.988-33.202
			c4.162-8.896,11.471-20.499,22.663-25.293l32.289-13.84c5.201-2.234,10.081-5.158,14.497-8.689
			c0.139-0.115,0.226-0.187,0.311-0.253c4.538-3.661,7.338-6.543,10.275-10.59c1.623-2.235,4.749-2.73,6.983-1.109
			c2.235,1.622,2.731,4.749,1.109,6.984c-3.991,5.499-7.743,8.991-12.147,12.544c-0.155,0.129-0.242,0.2-0.327,0.267
			c-5.077,4.06-10.729,7.447-16.759,10.036l-32.293,13.842c-6.474,2.773-12.703,9.994-17.541,20.333
			c-4.347,9.327-7.049,20.431-7.049,28.971v4.69h209.79v-4.69c0-17.934-10.741-43.381-24.589-49.313l-32.28-13.83
			c-6.153-2.641-11.905-6.112-17.099-10.321c-0.287-0.224-0.646-0.523-0.994-0.816c-4.172-3.497-7.481-6.666-11.15-11.706
			c-1.625-2.232-1.133-5.359,1.1-6.984s5.36-1.134,6.985,1.1c3.097,4.254,5.717,6.765,9.47,9.91c0.287,0.242,0.55,0.465,0.813,0.671
			c4.551,3.687,9.511,6.681,14.815,8.957l32.277,13.829c19.736,8.454,30.651,39.96,30.651,58.505v9.69
			C494.79,425.218,492.551,427.456,489.79,427.456z" id="id_243"></path>
<path d="M433.074,250.557c-0.347,0-0.699-0.036-1.052-0.112c-2.7-0.579-4.42-3.236-3.842-5.937
			c8.668-40.471-4.894-57.358-13.681-63.809v0.526c0,2.761-2.239,5-5,5c-2.762,0-5-2.239-5-5v-8.86c0-1.585,0.752-3.077,2.026-4.02
			c1.274-0.942,2.92-1.225,4.438-0.761c0.442,0.135,10.923,3.451,19.36,15.251c10.872,15.205,13.44,36.659,7.635,63.767
			C437.456,248.951,435.382,250.557,433.074,250.557z" id="id_244"></path>
<path d="M433.071,250.558c-1.984,0-3.862-1.189-4.645-3.145l-7.279-18.2c-1.025-2.564,0.222-5.474,2.785-6.5
			c2.563-1.023,5.474,0.221,6.5,2.786l7.28,18.2c1.025,2.564-0.223,5.474-2.786,6.5
			C434.317,250.442,433.689,250.558,433.071,250.558z" id="id_245"></path>
<path d="M413.42,236.566c-1.214,0-2.407-0.442-3.339-1.278c-1.346-1.207-1.935-3.046-1.541-4.811l0.913-4.091l-11.901,4.657
			c-1.634,0.64-3.485,0.375-4.875-0.697c-1.391-1.072-2.116-2.794-1.913-4.538l0.124-1.068c-10.179,3.899-29.118,7.809-58.123,1.232
			c-6.954-1.579-14.239-3.712-21.661-6.344c-2.001-0.654-3.448-2.535-3.448-4.753c0-2.761,2.233-5,4.995-5
			c0.569,0,1.146,0.098,1.684,0.289c7.092,2.519,14.037,4.556,20.643,6.056c40.582,9.204,58.735-3.979,58.913-4.113
			c1.599-1.201,3.776-1.348,5.511-0.353c1.734,0.996,2.728,2.915,2.496,4.9l-0.238,2.043l12.899-5.047
			c1.724-0.673,3.674-0.342,5.076,0.86c1.403,1.203,2.028,3.082,1.626,4.885l-1.02,4.568l3.939-1.341
			c2.613-0.888,5.454,0.508,6.344,3.123s-0.509,5.455-3.123,6.344l-12.37,4.21C414.504,236.479,413.96,236.566,413.42,236.566z" id="id_246"></path>
<path d="M312.657,219.877c-0.685,0-1.379-0.141-2.044-0.439c-2.52-1.13-3.646-4.089-2.516-6.608
			c15.402-34.331,42.888-42.326,63.233-42.988c21.573-0.698,39.316,6.452,40.062,6.757c2.556,1.045,3.78,3.965,2.735,6.521
			c-1.045,2.553-3.962,3.779-6.515,2.737l0,0c-0.166-0.066-16.787-6.708-36.259-6.01c-25.295,0.919-43.508,13.394-54.133,37.076
			C316.39,218.777,314.566,219.877,312.657,219.877z" id="id_247"></path>
<path d="M379.83,318.776c-7.05,0-13.878-1.415-20.294-4.205c-18.628-8.09-30.666-26.442-30.666-46.755v-46.72c0-2.761,2.238-5,5-5
			c2.761,0,5,2.239,5,5v46.72c0,16.327,9.676,31.08,24.651,37.584c5.152,2.24,10.639,3.376,16.309,3.376
			c5.463,0,10.76-1.055,15.744-3.135c4.977-2.074,9.422-5.054,13.216-8.856c7.739-7.748,12-18.036,12-28.969v-40.46
			c0-2.761,2.238-5,5-5c2.761,0,5,2.239,5,5v40.46c0,13.602-5.3,26.398-14.923,36.033c-4.721,4.732-10.254,8.441-16.443,11.021
			C393.216,317.462,386.622,318.776,379.83,318.776z" id="id_248"></path>
<path d="M379.703,289.854c-4.841,0-9.394-1.887-12.819-5.313c-1.952-1.952-1.952-5.118,0-7.07c1.954-1.953,5.118-1.953,7.071,0
			c1.537,1.536,3.578,2.383,5.748,2.383c2.169,0,4.206-0.846,5.737-2.38c1.95-1.954,5.116-1.957,7.071-0.007
			c1.955,1.951,1.958,5.117,0.007,7.071C389.098,287.966,384.546,289.854,379.703,289.854z" id="id_249"></path>
<path d="M455,427.456c-2.762,0-5-2.238-5-5v-27.72c0-2.762,2.238-5,5-5c2.761,0,5,2.238,5,5v27.72
			C460,425.218,457.761,427.456,455,427.456z" id="id_250"></path>
<path d="M305,427.456c-2.762,0-5-2.238-5-5v-27.72c0-2.762,2.238-5,5-5c2.761,0,5,2.238,5,5v27.72
			C310,425.218,307.761,427.456,305,427.456z" id="id_251"></path>
<path d="M397.549,375.696c-1.582,0-3.082-0.75-4.029-2.041l-17.65-24.04c-1.461-1.99-1.251-4.749,0.495-6.494l22.82-22.821
			c1.953-1.951,5.118-1.952,7.071,0.001c1.953,1.952,1.953,5.118-0.001,7.071l-19.785,19.785l10.111,13.771l12.856-27.622
			c1.166-2.505,4.14-3.587,6.643-2.424c2.504,1.165,3.588,4.14,2.423,6.643l-16.42,35.28c-0.745,1.603-2.281,2.691-4.04,2.866
			C397.878,375.688,397.713,375.696,397.549,375.696z" id="id_252"></path>
<path d="M361.49,375.696c-0.195,0-0.392-0.012-0.588-0.035c-1.752-0.207-3.266-1.323-3.982-2.936l-15.66-35.271
			c-0.283-0.639-0.43-1.33-0.43-2.029c0-2.762,2.238-5.005,5-5.005c2.118,0,3.929,1.314,4.657,3.173l12.154,27.375l10.625-13.875
			l-19.729-19.718c-1.954-1.951-1.958-5.116-0.008-7.071c1.95-1.957,5.116-1.958,7.07-0.009l22.835,22.825
			c1.773,1.772,1.958,4.585,0.434,6.575l-18.409,24.04C364.507,374.98,363.035,375.696,361.49,375.696z" id="id_253"></path>
<path d="M157.75,334.006c-2.761,0-5-2.238-5-5v-18.63c0-2.762,2.239-5,5-5s5,2.238,5,5v18.63
			C162.75,331.768,160.511,334.006,157.75,334.006z" id="id_254"></path>
<path d="M121.69,333.246c-2.761,0-5-2.238-5-5v-18.18c0-2.762,2.239-5,5-5s5,2.238,5,5v18.18
			C126.69,331.008,124.451,333.246,121.69,333.246z" id="id_255"></path>
<path d="M250,427.456H30.21c-2.761,0-5-2.238-5-5v-9.69c0-10.089,2.991-22.503,8.001-33.209
			c5.85-12.554,13.895-21.536,22.65-25.286l32.278-13.84c5.223-2.242,10.1-5.165,14.494-8.687c0.144-0.118,0.229-0.189,0.315-0.256
			c4.536-3.651,7.338-6.533,10.286-10.591c1.625-2.234,4.751-2.729,6.984-1.106c2.234,1.623,2.729,4.75,1.106,6.983
			c-4.006,5.515-7.759,9.004-12.16,12.547c-0.151,0.125-0.243,0.2-0.333,0.271c-5.042,4.041-10.695,7.43-16.748,10.029L59.8,363.462
			c-6.491,2.78-12.715,9.999-17.528,20.326c-4.358,9.311-7.063,20.411-7.063,28.978v4.69H245v-4.69
			c0-17.934-10.741-43.381-24.589-49.313l-32.29-13.83c-6.166-2.65-11.917-6.122-17.099-10.321
			c-0.299-0.232-0.667-0.541-1.023-0.841c-4.144-3.482-7.45-6.652-11.111-11.682c-1.625-2.232-1.133-5.359,1.1-6.984
			c2.233-1.625,5.359-1.134,6.985,1.1c3.092,4.247,5.712,6.761,9.464,9.914c0.268,0.226,0.54,0.456,0.812,0.669
			c4.538,3.676,9.5,6.671,14.815,8.956l32.284,13.828c19.736,8.454,30.651,39.96,30.651,58.505v9.69
			C255,425.218,252.761,427.456,250,427.456z" id="id_256"></path>
<path d="M193.275,250.557c-0.347,0-0.699-0.036-1.052-0.112c-2.7-0.578-4.42-3.236-3.842-5.937
			c8.668-40.471-4.894-57.358-13.681-63.809v0.526c0,2.761-2.239,5-5,5s-5-2.239-5-5v-8.86c0-1.585,0.752-3.077,2.027-4.02
			c1.274-0.942,2.919-1.225,4.438-0.761c0.442,0.135,10.923,3.451,19.36,15.251c10.872,15.205,13.44,36.659,7.634,63.767
			C197.656,248.951,195.582,250.557,193.275,250.557z" id="id_257"></path>
<path d="M193.271,250.558c-1.984,0-3.862-1.189-4.644-3.145l-7.28-18.2c-1.025-2.564,0.222-5.474,2.786-6.5
			c2.563-1.023,5.474,0.221,6.5,2.786l7.28,18.2c1.025,2.564-0.222,5.474-2.786,6.5C194.518,250.442,193.89,250.558,193.271,250.558
			z" id="id_258"></path>
<path d="M173.63,236.566c-1.213,0-2.406-0.442-3.337-1.276c-1.346-1.207-1.936-3.045-1.544-4.81l0.912-4.096l-11.898,4.658
			c-1.634,0.64-3.485,0.376-4.875-0.696c-1.39-1.072-2.117-2.794-1.914-4.538l0.124-1.068c-10.179,3.9-29.119,7.81-58.133,1.232
			c-6.988-1.586-14.315-3.734-21.778-6.385c-2.602-0.924-3.962-3.783-3.038-6.385c0.924-2.603,3.783-3.963,6.385-3.038
			c7.093,2.519,14.039,4.557,20.644,6.056c41.101,9.318,58.714-3.951,58.887-4.085c1.589-1.241,3.768-1.404,5.526-0.417
			c1.757,0.988,2.75,2.935,2.517,4.937l-0.237,2.042l12.888-5.045c1.721-0.675,3.671-0.344,5.076,0.858
			c1.403,1.202,2.029,3.08,1.628,4.883l-1.017,4.571l3.934-1.34c2.612-0.892,5.454,0.506,6.345,3.121
			c0.891,2.614-0.507,5.455-3.121,6.345l-12.36,4.21C174.715,236.479,174.171,236.566,173.63,236.566z" id="id_259"></path>
<path d="M72.857,219.877c-0.685,0-1.379-0.142-2.044-0.44c-2.519-1.13-3.645-4.089-2.514-6.609
			c15.407-34.33,42.892-42.325,63.237-42.987c21.556-0.696,39.313,6.452,40.058,6.757c2.556,1.046,3.78,3.965,2.735,6.521
			c-1.045,2.553-3.961,3.779-6.516,2.737l0,0c-0.166-0.068-16.797-6.72-36.254-6.01c-25.294,0.919-43.508,13.394-54.137,37.077
			C76.589,218.778,74.766,219.877,72.857,219.877z" id="id_260"></path>
<path d="M140.03,318.776c-7.05,0-13.877-1.415-20.294-4.205c-18.628-8.09-30.666-26.442-30.666-46.755v-46.72c0-2.761,2.239-5,5-5
			s5,2.239,5,5v46.72c0,16.327,9.676,31.08,24.652,37.584c5.153,2.24,10.639,3.376,16.308,3.376c5.463,0,10.761-1.055,15.745-3.135
			c4.976-2.074,9.421-5.054,13.216-8.856c7.74-7.74,12-18.026,12-28.969v-40.46c0-2.761,2.239-5,5-5s5,2.239,5,5v40.46
			c0,13.613-5.3,26.411-14.925,36.035c-4.72,4.731-10.253,8.439-16.441,11.02C153.415,317.462,146.822,318.776,140.03,318.776z" id="id_261"></path>
<path d="M139.91,289.854c-4.845,0-9.397-1.888-12.819-5.315c-1.951-1.954-1.948-5.12,0.007-7.071
			c1.955-1.95,5.12-1.947,7.071,0.007c1.531,1.534,3.57,2.38,5.741,2.38c2.171,0,4.21-0.846,5.741-2.38
			c1.95-1.954,5.116-1.957,7.071-0.007c1.955,1.951,1.958,5.117,0.007,7.071C149.308,287.966,144.755,289.854,139.91,289.854z" id="id_262"></path>
<path d="M215,427.456c-2.761,0-5-2.238-5-5v-27.72c0-2.762,2.239-5,5-5s5,2.238,5,5v27.72
			C220,425.218,217.761,427.456,215,427.456z" id="id_263"></path>
<path d="M65,427.456c-2.761,0-5-2.238-5-5v-27.72c0-2.762,2.239-5,5-5s5,2.238,5,5v27.72C70,425.218,67.761,427.456,65,427.456z" id="id_264"></path>
<path d="M157.749,375.696c-1.582,0-3.082-0.75-4.029-2.041l-17.65-24.04c-1.461-1.99-1.251-4.749,0.495-6.494l22.833-22.824
			c1.955-1.949,5.121-1.948,7.071,0.007s1.948,5.12-0.007,7.071l-19.792,19.782l10.111,13.771l12.855-27.621
			c1.166-2.505,4.14-3.587,6.643-2.424c2.503,1.165,3.588,4.14,2.423,6.643l-16.42,35.28c-0.746,1.603-2.281,2.691-4.04,2.866
			C158.078,375.688,157.913,375.696,157.749,375.696z" id="id_265"></path>
<path d="M121.691,375.696c-0.196,0-0.392-0.012-0.589-0.035c-1.752-0.207-3.266-1.323-3.982-2.936l-15.66-35.271
			c-0.284-0.639-0.43-1.33-0.43-2.029c0-2.762,2.239-5.005,5-5.005c2.118,0,3.929,1.314,4.657,3.173l12.155,27.375l10.625-13.875
			l-19.723-19.723c-1.953-1.952-1.953-5.118,0-7.07c1.953-1.953,5.118-1.953,7.071,0l22.82,22.82
			c1.773,1.772,1.958,4.585,0.434,6.575l-18.41,24.04C124.707,374.98,123.235,375.696,121.691,375.696z" id="id_266"></path>
<path d="M490,477.546H30c-2.761,0-5-2.238-5-5v-25.09c0-2.762,2.239-5,5-5h460c2.761,0,5,2.238,5,5v25.09
			C495,475.308,492.761,477.546,490,477.546z M35,467.546h450v-15.09H35V467.546z" id="id_267"></path>
<path d="M260.121,192.455c-19.508,0-38.392-7.599-52.402-21.221c-15.097-14.68-23.362-35.19-22.677-56.27
			c0.627-19.343,8.685-37.508,22.689-51.148c13.998-13.634,32.367-21.219,51.723-21.359c19.917-0.135,38.67,7.431,52.917,21.331
			c1.977,1.929,2.016,5.094,0.088,7.071c-1.929,1.977-5.095,2.016-7.071,0.087c-12.349-12.048-28.661-18.653-45.861-18.489
			c-34.444,0.249-63.374,28.436-64.489,62.832c-0.595,18.275,6.569,36.053,19.653,48.776c13.273,12.907,30.807,19.395,49.367,18.271
			c33.1-2.01,59.268-28.527,60.868-61.681c0.425-8.89-0.918-17.594-3.992-25.867c-0.963-2.588,0.356-5.467,2.944-6.429
			c2.588-0.96,5.467,0.356,6.429,2.945c3.548,9.546,5.098,19.583,4.607,29.831c-0.887,18.368-8.551,35.756-21.581,48.964
			c-13.036,13.213-30.32,21.104-48.67,22.218C263.147,192.409,261.632,192.455,260.121,192.455z" id="id_268"></path>
<path d="M264.29,159.376c-1.326,0-2.598-0.527-3.536-1.464l-31.819-31.82c-3.773-3.76-5.854-8.782-5.854-14.136
			c0-5.347,2.079-10.371,5.855-14.146c3.778-3.778,8.801-5.859,14.144-5.859c5.344,0,10.366,2.082,14.14,5.863l7.071,7.071
			l56.563-56.573c3.775-3.776,8.799-5.855,14.146-5.855c5.347,0,10.371,2.079,14.146,5.855c7.788,7.801,7.788,20.489,0.003,28.288
			l-81.323,81.313C266.888,158.849,265.616,159.376,264.29,159.376z M243.079,101.951c-2.671,0-5.183,1.041-7.073,2.93
			c-1.887,1.887-2.926,4.399-2.926,7.075s1.037,5.182,2.919,7.059l28.291,28.29l77.785-77.775c3.892-3.898,3.892-10.248-0.004-14.15
			c-1.884-1.884-4.396-2.923-7.071-2.923s-5.188,1.039-7.074,2.925l-60.101,60.11c-1.953,1.952-5.118,1.952-7.071,0l-10.609-10.61
			C248.257,102.991,245.749,101.951,243.079,101.951z" id="id_269"></path>
<path d="M210,332.366c-1.28,0-2.559-0.488-3.536-1.465l-15-15c-1.953-1.952-1.953-5.118,0-7.07l15-15
			c1.953-1.953,5.118-1.953,7.071,0c1.953,1.952,1.953,5.118,0,7.07l-11.464,11.465l11.464,11.465c1.953,1.952,1.953,5.118,0,7.07
			C212.559,331.878,211.28,332.366,210,332.366z" id="id_270"></path>
<path d="M310,332.366c-1.28,0-2.56-0.488-3.536-1.465c-1.952-1.952-1.952-5.118,0-7.07l11.465-11.465l-11.465-11.465
			c-1.952-1.952-1.952-5.118,0-7.07c1.953-1.953,5.118-1.953,7.071,0l15,15c1.953,1.952,1.953,5.118,0,7.07l-15,15
			C312.559,331.878,311.279,332.366,310,332.366z" id="id_271"></path>
<path d="M325,317.366H195c-2.761,0-5-2.238-5-5s2.239-5,5-5h130c2.761,0,5,2.238,5,5S327.761,317.366,325,317.366z" id="id_272"></path>
<path d="M80,142.366c-11.028,0-20-8.972-20-20s8.972-20,20-20s20,8.972,20,20S91.028,142.366,80,142.366z M80,112.366
			c-5.514,0-10,4.486-10,10s4.486,10,10,10s10-4.486,10-10S85.514,112.366,80,112.366z" id="id_273"></path>
<path d="M450,132.366c-16.542,0-30-13.458-30-30s13.458-30,30-30s30,13.458,30,30S466.542,132.366,450,132.366z M450,82.366
			c-11.028,0-20,8.972-20,20s8.972,20,20,20c11.027,0,20-8.972,20-20S461.027,82.366,450,82.366z" id="id_274"></path>
<path style="fill:#68CA44;" d="M308.839,67.407l0.041-0.041c-20.1-19.609-48.838-24.614-73.289-15.528l0.044,0.044
			c-9.744,3.657-18.482,9.439-25.647,16.772l-0.076-0.076c-16.3,16.707-23.159,40.293-18.429,63.157
			c6.25,30.15,31.667,52.676,62.136,55.421c41.351,3.762,76.594-29,76.379-70.021C329.916,98.13,322.138,80.378,308.839,67.407z" id="id_275"></path>
<rect x="30" y="447.456" style="fill:#57606F;" width="460" height="25.09" id="id_276"></rect>
<path style="fill:#FF5987;" d="M450,77.366c13.81,0,25,11.19,25,25s-11.19,25-25,25c-13.811,0-25-11.19-25-25
			S436.189,77.366,450,77.366z" id="id_277"></path>
<path style="fill:#FF5987;" d="M80,107.366c8.28,0,15,6.72,15,15c0,8.28-6.72,15-15,15s-15-6.72-15-15
			C65,114.086,71.72,107.366,80,107.366z" id="id_278"></path>
<path style="fill:#D0DCE7;" d="M345.609,51.846c5.851,5.86,5.851,15.36,0,21.22l-19.989,19.98l-40.12,40.12l-21.21,21.21
			l-21.21-21.21l-10.61-10.61c-2.93-2.92-4.39-6.76-4.39-10.6s1.46-7.68,4.39-10.61c5.86-5.86,15.36-5.86,21.21,0l10.61,10.61
			l44.59-44.59l15.51-15.52c2.93-2.93,6.771-4.39,10.61-4.39S342.68,48.916,345.609,51.846z" id="id_279"></path>
<path style="fill:#32438C;" d="M402.72,323.836c3.24,4.45,6.09,7.271,10.3,10.8c0.311,0.261,0.631,0.53,0.95,0.78l-16.42,35.28
			l-17.649-24.04l17.649-17.65L402.72,323.836z" id="id_280"></path>
<path style="fill:#32438C;" d="M379.9,346.656l-18.41,24.04l-15.66-35.271c4.55-3.67,7.77-6.81,11.239-11.59l4.421,4.41
			L379.9,346.656z" id="id_281"></path>
<path style="fill:#32438C;" d="M162.93,323.836c3.24,4.45,6.09,7.271,10.29,10.8c0.31,0.261,0.63,0.53,0.95,0.78l-16.42,35.28
			l-17.65-24.04l17.65-17.65L162.93,323.836z" id="id_282"></path>
<path style="fill:#32438C;" d="M140.1,346.656l-18.41,24.04l-15.66-35.271c4.56-3.67,7.77-6.8,11.25-11.59l4.41,4.41
			L140.1,346.656z" id="id_283"></path>
<path style="fill:#4A78FF;" d="M455,422.456H305h-35v-9.69c0-9.109,2.72-20.79,7.52-31.09c4.82-10.3,11.721-19.22,20.101-22.81
			l32.29-13.84c5.659-2.431,10.909-5.59,15.649-9.38c0.091-0.07,0.181-0.15,0.271-0.221l15.66,35.271l18.41-24.04l17.649,24.04
			l16.42-35.28c4.8,3.89,10.14,7.13,15.92,9.61l32.28,13.83c16.76,7.18,27.62,35.68,27.62,53.909v9.69H455z" id="id_284"></path>
<path style="fill:#4A78FF;" d="M215,422.456H65H30.21v-9.69c0-9.109,2.71-20.79,7.53-31.09c4.8-10.3,11.71-19.22,20.09-22.81
			l32.28-13.84c5.66-2.431,10.92-5.59,15.65-9.38c0.09-0.07,0.18-0.15,0.27-0.221l15.66,35.271l18.41-24.04l17.65,24.04l16.42-35.28
			c4.8,3.89,10.15,7.13,15.92,9.61l32.29,13.83c16.76,7.18,27.62,35.68,27.62,53.909v9.69H215z" id="id_285"></path>
<path style="fill:#F3CC97;" d="M397.55,310.376v18.63l-17.649,17.65l-18.41-18.41v-18.18l0.039-0.08
			c5.61,2.439,11.801,3.79,18.301,3.79c6.26,0,12.229-1.25,17.67-3.521L397.55,310.376z" id="id_286"></path>
<path style="fill:#F3CC97;" d="M157.75,329.006l-17.65,17.65l-18.41-18.41v-18.18l0.04-0.08c5.61,2.439,11.8,3.79,18.3,3.79
			c6.26,0,12.23-1.25,17.67-3.521l0.05,0.12V329.006z" id="id_287"></path>
<path style="fill:#FFE2B6;" d="M425.79,227.356v40.46c0,12.699-5.15,24.18-13.46,32.5c-4.21,4.22-9.24,7.609-14.83,9.939
			c-5.44,2.271-11.41,3.521-17.67,3.521c-6.5,0-12.69-1.351-18.301-3.79c-16.279-7.07-27.659-23.29-27.659-42.17v-46.72
			c43.88,9.95,63.06-5.02,63.06-5.02l-1.2,10.31l20.65-8.08l-2.96,13.26L425.79,227.356z" id="id_288"></path>
<path style="fill:#FFE2B6;" d="M185.99,227.356v40.46c0,12.699-5.14,24.18-13.46,32.5c-4.21,4.22-9.24,7.609-14.83,9.939
			c-5.44,2.271-11.41,3.521-17.67,3.521c-6.5,0-12.69-1.351-18.3-3.79c-16.28-7.07-27.66-23.29-27.66-42.17v-46.72
			c43.89,9.95,63.07-5.02,63.07-5.02l-1.2,10.31l20.64-8.08l-2.95,13.26L185.99,227.356z" id="id_289"></path>
<path style="fill:#C86D36;" d="M425.79,227.356l-12.37,4.21l2.96-13.26l-20.65,8.08l1.2-10.31c0,0-19.18,14.97-63.06,5.02
			c-6.521-1.48-13.58-3.51-21.21-6.22c27.77-61.9,96.84-33.65,96.84-33.65v-8.86c0,0,36.83,11.28,23.569,73.19L425.79,227.356z" id="id_290"></path>
<path style="fill: rgb(125, 69, 26);" d="M169.7,172.366c0,0,36.83,11.28,23.57,73.19l-7.28-18.2l-12.36,4.21l2.95-13.26l-20.64,8.08
			l1.2-10.31c0,0-19.18,14.97-63.07,5.02c-6.52-1.48-13.58-3.51-21.21-6.22c27.78-61.9,96.84-33.65,96.84-33.65V172.366z" id="id_291"></path>
<circle cx="467.5" cy="254.866" r="7.5" id="id_292"></circle>
<circle cx="382.5" cy="79.866" r="7.5" id="id_293"></circle>
<circle cx="295" cy="259.866" r="7.5" id="id_294"></circle>
<circle cx="232.5" cy="224.866" r="7.5" id="id_295"></circle>
<circle cx="147.5" cy="94.866" r="7.5" id="id_296"></circle>
<circle cx="52.5" cy="294.866" r="7.5" id="id_297"></circle>
<circle cx="47.5" cy="184.866" r="7.5" id="id_298"></circle>
<path d="M397.55,334.006c-2.762,0-5-2.238-5-5v-18.63c0-2.762,2.238-5,5-5c2.761,0,5,2.238,5,5v18.63
			C402.55,331.768,400.311,334.006,397.55,334.006z" id="id_299"></path>
<path d="M361.49,333.246c-2.762,0-5-2.238-5-5v-18.18c0-2.762,2.238-5,5-5c2.761,0,5,2.238,5,5v18.18
			C366.49,331.008,364.251,333.246,361.49,333.246z" id="id_300"></path>
<path d="M489.79,427.456H270c-2.762,0-5-2.238-5-5v-9.69c0-10.057,2.986-22.469,7.988-33.202
			c4.162-8.896,11.471-20.499,22.663-25.293l32.289-13.84c5.201-2.234,10.081-5.158,14.497-8.689
			c0.139-0.115,0.226-0.187,0.311-0.253c4.538-3.661,7.338-6.543,10.275-10.59c1.623-2.235,4.749-2.73,6.983-1.109
			c2.235,1.622,2.731,4.749,1.109,6.984c-3.991,5.499-7.743,8.991-12.147,12.544c-0.155,0.129-0.242,0.2-0.327,0.267
			c-5.077,4.06-10.729,7.447-16.759,10.036l-32.293,13.842c-6.474,2.773-12.703,9.994-17.541,20.333
			c-4.347,9.327-7.049,20.431-7.049,28.971v4.69h209.79v-4.69c0-17.934-10.741-43.381-24.589-49.313l-32.28-13.83
			c-6.153-2.641-11.905-6.112-17.099-10.321c-0.287-0.224-0.646-0.523-0.994-0.816c-4.172-3.497-7.481-6.666-11.15-11.706
			c-1.625-2.232-1.133-5.359,1.1-6.984s5.36-1.134,6.985,1.1c3.097,4.254,5.717,6.765,9.47,9.91c0.287,0.242,0.55,0.465,0.813,0.671
			c4.551,3.687,9.511,6.681,14.815,8.957l32.277,13.829c19.736,8.454,30.651,39.96,30.651,58.505v9.69
			C494.79,425.218,492.551,427.456,489.79,427.456z" id="id_301"></path>
<path d="M433.074,250.557c-0.347,0-0.699-0.036-1.052-0.112c-2.7-0.579-4.42-3.236-3.842-5.937
			c8.668-40.471-4.894-57.358-13.681-63.809v0.526c0,2.761-2.239,5-5,5c-2.762,0-5-2.239-5-5v-8.86c0-1.585,0.752-3.077,2.026-4.02
			c1.274-0.942,2.92-1.225,4.438-0.761c0.442,0.135,10.923,3.451,19.36,15.251c10.872,15.205,13.44,36.659,7.635,63.767
			C437.456,248.951,435.382,250.557,433.074,250.557z" id="id_302"></path>
<path d="M433.071,250.558c-1.984,0-3.862-1.189-4.645-3.145l-7.279-18.2c-1.025-2.564,0.222-5.474,2.785-6.5
			c2.563-1.023,5.474,0.221,6.5,2.786l7.28,18.2c1.025,2.564-0.223,5.474-2.786,6.5
			C434.317,250.442,433.689,250.558,433.071,250.558z" id="id_303"></path>
<path d="M413.42,236.566c-1.214,0-2.407-0.442-3.339-1.278c-1.346-1.207-1.935-3.046-1.541-4.811l0.913-4.091l-11.901,4.657
			c-1.634,0.64-3.485,0.375-4.875-0.697c-1.391-1.072-2.116-2.794-1.913-4.538l0.124-1.068c-10.179,3.899-29.118,7.809-58.123,1.232
			c-6.954-1.579-14.239-3.712-21.661-6.344c-2.001-0.654-3.448-2.535-3.448-4.753c0-2.761,2.233-5,4.995-5
			c0.569,0,1.146,0.098,1.684,0.289c7.092,2.519,14.037,4.556,20.643,6.056c40.582,9.204,58.735-3.979,58.913-4.113
			c1.599-1.201,3.776-1.348,5.511-0.353c1.734,0.996,2.728,2.915,2.496,4.9l-0.238,2.043l12.899-5.047
			c1.724-0.673,3.674-0.342,5.076,0.86c1.403,1.203,2.028,3.082,1.626,4.885l-1.02,4.568l3.939-1.341
			c2.613-0.888,5.454,0.508,6.344,3.123s-0.509,5.455-3.123,6.344l-12.37,4.21C414.504,236.479,413.96,236.566,413.42,236.566z" id="id_304"></path>
<path d="M312.657,219.877c-0.685,0-1.379-0.141-2.044-0.439c-2.52-1.13-3.646-4.089-2.516-6.608
			c15.402-34.331,42.888-42.326,63.233-42.988c21.573-0.698,39.316,6.452,40.062,6.757c2.556,1.045,3.78,3.965,2.735,6.521
			c-1.045,2.553-3.962,3.779-6.515,2.737l0,0c-0.166-0.066-16.787-6.708-36.259-6.01c-25.295,0.919-43.508,13.394-54.133,37.076
			C316.39,218.777,314.566,219.877,312.657,219.877z" id="id_305"></path>
<path d="M379.83,318.776c-7.05,0-13.878-1.415-20.294-4.205c-18.628-8.09-30.666-26.442-30.666-46.755v-46.72c0-2.761,2.238-5,5-5
			c2.761,0,5,2.239,5,5v46.72c0,16.327,9.676,31.08,24.651,37.584c5.152,2.24,10.639,3.376,16.309,3.376
			c5.463,0,10.76-1.055,15.744-3.135c4.977-2.074,9.422-5.054,13.216-8.856c7.739-7.748,12-18.036,12-28.969v-40.46
			c0-2.761,2.238-5,5-5c2.761,0,5,2.239,5,5v40.46c0,13.602-5.3,26.398-14.923,36.033c-4.721,4.732-10.254,8.441-16.443,11.021
			C393.216,317.462,386.622,318.776,379.83,318.776z" id="id_306"></path>
<path d="M379.703,289.854c-4.841,0-9.394-1.887-12.819-5.313c-1.952-1.952-1.952-5.118,0-7.07c1.954-1.953,5.118-1.953,7.071,0
			c1.537,1.536,3.578,2.383,5.748,2.383c2.169,0,4.206-0.846,5.737-2.38c1.95-1.954,5.116-1.957,7.071-0.007
			c1.955,1.951,1.958,5.117,0.007,7.071C389.098,287.966,384.546,289.854,379.703,289.854z" id="id_307"></path>
<path d="M455,427.456c-2.762,0-5-2.238-5-5v-27.72c0-2.762,2.238-5,5-5c2.761,0,5,2.238,5,5v27.72
			C460,425.218,457.761,427.456,455,427.456z" id="id_308"></path>
<path d="M305,427.456c-2.762,0-5-2.238-5-5v-27.72c0-2.762,2.238-5,5-5c2.761,0,5,2.238,5,5v27.72
			C310,425.218,307.761,427.456,305,427.456z" id="id_309"></path>
<path d="M397.549,375.696c-1.582,0-3.082-0.75-4.029-2.041l-17.65-24.04c-1.461-1.99-1.251-4.749,0.495-6.494l22.82-22.821
			c1.953-1.951,5.118-1.952,7.071,0.001c1.953,1.952,1.953,5.118-0.001,7.071l-19.785,19.785l10.111,13.771l12.856-27.622
			c1.166-2.505,4.14-3.587,6.643-2.424c2.504,1.165,3.588,4.14,2.423,6.643l-16.42,35.28c-0.745,1.603-2.281,2.691-4.04,2.866
			C397.878,375.688,397.713,375.696,397.549,375.696z" id="id_310"></path>
<path d="M361.49,375.696c-0.195,0-0.392-0.012-0.588-0.035c-1.752-0.207-3.266-1.323-3.982-2.936l-15.66-35.271
			c-0.283-0.639-0.43-1.33-0.43-2.029c0-2.762,2.238-5.005,5-5.005c2.118,0,3.929,1.314,4.657,3.173l12.154,27.375l10.625-13.875
			l-19.729-19.718c-1.954-1.951-1.958-5.116-0.008-7.071c1.95-1.957,5.116-1.958,7.07-0.009l22.835,22.825
			c1.773,1.772,1.958,4.585,0.434,6.575l-18.409,24.04C364.507,374.98,363.035,375.696,361.49,375.696z" id="id_311"></path>
<path d="M157.75,334.006c-2.761,0-5-2.238-5-5v-18.63c0-2.762,2.239-5,5-5s5,2.238,5,5v18.63
			C162.75,331.768,160.511,334.006,157.75,334.006z" id="id_312"></path>
<path d="M121.69,333.246c-2.761,0-5-2.238-5-5v-18.18c0-2.762,2.239-5,5-5s5,2.238,5,5v18.18
			C126.69,331.008,124.451,333.246,121.69,333.246z" id="id_313"></path>
<path d="M250,427.456H30.21c-2.761,0-5-2.238-5-5v-9.69c0-10.089,2.991-22.503,8.001-33.209
			c5.85-12.554,13.895-21.536,22.65-25.286l32.278-13.84c5.223-2.242,10.1-5.165,14.494-8.687c0.144-0.118,0.229-0.189,0.315-0.256
			c4.536-3.651,7.338-6.533,10.286-10.591c1.625-2.234,4.751-2.729,6.984-1.106c2.234,1.623,2.729,4.75,1.106,6.983
			c-4.006,5.515-7.759,9.004-12.16,12.547c-0.151,0.125-0.243,0.2-0.333,0.271c-5.042,4.041-10.695,7.43-16.748,10.029L59.8,363.462
			c-6.491,2.78-12.715,9.999-17.528,20.326c-4.358,9.311-7.063,20.411-7.063,28.978v4.69H245v-4.69
			c0-17.934-10.741-43.381-24.589-49.313l-32.29-13.83c-6.166-2.65-11.917-6.122-17.099-10.321
			c-0.299-0.232-0.667-0.541-1.023-0.841c-4.144-3.482-7.45-6.652-11.111-11.682c-1.625-2.232-1.133-5.359,1.1-6.984
			c2.233-1.625,5.359-1.134,6.985,1.1c3.092,4.247,5.712,6.761,9.464,9.914c0.268,0.226,0.54,0.456,0.812,0.669
			c4.538,3.676,9.5,6.671,14.815,8.956l32.284,13.828c19.736,8.454,30.651,39.96,30.651,58.505v9.69
			C255,425.218,252.761,427.456,250,427.456z" id="id_314"></path>
<path d="M193.275,250.557c-0.347,0-0.699-0.036-1.052-0.112c-2.7-0.578-4.42-3.236-3.842-5.937
			c8.668-40.471-4.894-57.358-13.681-63.809v0.526c0,2.761-2.239,5-5,5s-5-2.239-5-5v-8.86c0-1.585,0.752-3.077,2.027-4.02
			c1.274-0.942,2.919-1.225,4.438-0.761c0.442,0.135,10.923,3.451,19.36,15.251c10.872,15.205,13.44,36.659,7.634,63.767
			C197.656,248.951,195.582,250.557,193.275,250.557z" id="id_315"></path>
<path d="M193.271,250.558c-1.984,0-3.862-1.189-4.644-3.145l-7.28-18.2c-1.025-2.564,0.222-5.474,2.786-6.5
			c2.563-1.023,5.474,0.221,6.5,2.786l7.28,18.2c1.025,2.564-0.222,5.474-2.786,6.5C194.518,250.442,193.89,250.558,193.271,250.558
			z" id="id_316"></path>
<path d="M173.63,236.566c-1.213,0-2.406-0.442-3.337-1.276c-1.346-1.207-1.936-3.045-1.544-4.81l0.912-4.096l-11.898,4.658
			c-1.634,0.64-3.485,0.376-4.875-0.696c-1.39-1.072-2.117-2.794-1.914-4.538l0.124-1.068c-10.179,3.9-29.119,7.81-58.133,1.232
			c-6.988-1.586-14.315-3.734-21.778-6.385c-2.602-0.924-3.962-3.783-3.038-6.385c0.924-2.603,3.783-3.963,6.385-3.038
			c7.093,2.519,14.039,4.557,20.644,6.056c41.101,9.318,58.714-3.951,58.887-4.085c1.589-1.241,3.768-1.404,5.526-0.417
			c1.757,0.988,2.75,2.935,2.517,4.937l-0.237,2.042l12.888-5.045c1.721-0.675,3.671-0.344,5.076,0.858
			c1.403,1.202,2.029,3.08,1.628,4.883l-1.017,4.571l3.934-1.34c2.612-0.892,5.454,0.506,6.345,3.121
			c0.891,2.614-0.507,5.455-3.121,6.345l-12.36,4.21C174.715,236.479,174.171,236.566,173.63,236.566z" id="id_317"></path>
<path d="M72.857,219.877c-0.685,0-1.379-0.142-2.044-0.44c-2.519-1.13-3.645-4.089-2.514-6.609
			c15.407-34.33,42.892-42.325,63.237-42.987c21.556-0.696,39.313,6.452,40.058,6.757c2.556,1.046,3.78,3.965,2.735,6.521
			c-1.045,2.553-3.961,3.779-6.516,2.737l0,0c-0.166-0.068-16.797-6.72-36.254-6.01c-25.294,0.919-43.508,13.394-54.137,37.077
			C76.589,218.778,74.766,219.877,72.857,219.877z" id="id_318"></path>
<path d="M140.03,318.776c-7.05,0-13.877-1.415-20.294-4.205c-18.628-8.09-30.666-26.442-30.666-46.755v-46.72c0-2.761,2.239-5,5-5
			s5,2.239,5,5v46.72c0,16.327,9.676,31.08,24.652,37.584c5.153,2.24,10.639,3.376,16.308,3.376c5.463,0,10.761-1.055,15.745-3.135
			c4.976-2.074,9.421-5.054,13.216-8.856c7.74-7.74,12-18.026,12-28.969v-40.46c0-2.761,2.239-5,5-5s5,2.239,5,5v40.46
			c0,13.613-5.3,26.411-14.925,36.035c-4.72,4.731-10.253,8.439-16.441,11.02C153.415,317.462,146.822,318.776,140.03,318.776z" id="id_319"></path>
<path d="M139.91,289.854c-4.845,0-9.397-1.888-12.819-5.315c-1.951-1.954-1.948-5.12,0.007-7.071
			c1.955-1.95,5.12-1.947,7.071,0.007c1.531,1.534,3.57,2.38,5.741,2.38c2.171,0,4.21-0.846,5.741-2.38
			c1.95-1.954,5.116-1.957,7.071-0.007c1.955,1.951,1.958,5.117,0.007,7.071C149.308,287.966,144.755,289.854,139.91,289.854z" id="id_320"></path>
<path d="M215,427.456c-2.761,0-5-2.238-5-5v-27.72c0-2.762,2.239-5,5-5s5,2.238,5,5v27.72
			C220,425.218,217.761,427.456,215,427.456z" id="id_321"></path>
<path d="M65,427.456c-2.761,0-5-2.238-5-5v-27.72c0-2.762,2.239-5,5-5s5,2.238,5,5v27.72C70,425.218,67.761,427.456,65,427.456z" id="id_322"></path>
<path d="M157.749,375.696c-1.582,0-3.082-0.75-4.029-2.041l-17.65-24.04c-1.461-1.99-1.251-4.749,0.495-6.494l22.833-22.824
			c1.955-1.949,5.121-1.948,7.071,0.007s1.948,5.12-0.007,7.071l-19.792,19.782l10.111,13.771l12.855-27.621
			c1.166-2.505,4.14-3.587,6.643-2.424c2.503,1.165,3.588,4.14,2.423,6.643l-16.42,35.28c-0.746,1.603-2.281,2.691-4.04,2.866
			C158.078,375.688,157.913,375.696,157.749,375.696z" id="id_323"></path>
<path d="M121.691,375.696c-0.196,0-0.392-0.012-0.589-0.035c-1.752-0.207-3.266-1.323-3.982-2.936l-15.66-35.271
			c-0.284-0.639-0.43-1.33-0.43-2.029c0-2.762,2.239-5.005,5-5.005c2.118,0,3.929,1.314,4.657,3.173l12.155,27.375l10.625-13.875
			l-19.723-19.723c-1.953-1.952-1.953-5.118,0-7.07c1.953-1.953,5.118-1.953,7.071,0l22.82,22.82
			c1.773,1.772,1.958,4.585,0.434,6.575l-18.41,24.04C124.707,374.98,123.235,375.696,121.691,375.696z" id="id_324"></path>
<path d="M490,477.546H30c-2.761,0-5-2.238-5-5v-25.09c0-2.762,2.239-5,5-5h460c2.761,0,5,2.238,5,5v25.09
			C495,475.308,492.761,477.546,490,477.546z M35,467.546h450v-15.09H35V467.546z" id="id_325"></path>
<path d="M260.121,192.455c-19.508,0-38.392-7.599-52.402-21.221c-15.097-14.68-23.362-35.19-22.677-56.27
			c0.627-19.343,8.685-37.508,22.689-51.148c13.998-13.634,32.367-21.219,51.723-21.359c19.917-0.135,38.67,7.431,52.917,21.331
			c1.977,1.929,2.016,5.094,0.088,7.071c-1.929,1.977-5.095,2.016-7.071,0.087c-12.349-12.048-28.661-18.653-45.861-18.489
			c-34.444,0.249-63.374,28.436-64.489,62.832c-0.595,18.275,6.569,36.053,19.653,48.776c13.273,12.907,30.807,19.395,49.367,18.271
			c33.1-2.01,59.268-28.527,60.868-61.681c0.425-8.89-0.918-17.594-3.992-25.867c-0.963-2.588,0.356-5.467,2.944-6.429
			c2.588-0.96,5.467,0.356,6.429,2.945c3.548,9.546,5.098,19.583,4.607,29.831c-0.887,18.368-8.551,35.756-21.581,48.964
			c-13.036,13.213-30.32,21.104-48.67,22.218C263.147,192.409,261.632,192.455,260.121,192.455z" id="id_326"></path>
<path d="M264.29,159.376c-1.326,0-2.598-0.527-3.536-1.464l-31.819-31.82c-3.773-3.76-5.854-8.782-5.854-14.136
			c0-5.347,2.079-10.371,5.855-14.146c3.778-3.778,8.801-5.859,14.144-5.859c5.344,0,10.366,2.082,14.14,5.863l7.071,7.071
			l56.563-56.573c3.775-3.776,8.799-5.855,14.146-5.855c5.347,0,10.371,2.079,14.146,5.855c7.788,7.801,7.788,20.489,0.003,28.288
			l-81.323,81.313C266.888,158.849,265.616,159.376,264.29,159.376z M243.079,101.951c-2.671,0-5.183,1.041-7.073,2.93
			c-1.887,1.887-2.926,4.399-2.926,7.075s1.037,5.182,2.919,7.059l28.291,28.29l77.785-77.775c3.892-3.898,3.892-10.248-0.004-14.15
			c-1.884-1.884-4.396-2.923-7.071-2.923s-5.188,1.039-7.074,2.925l-60.101,60.11c-1.953,1.952-5.118,1.952-7.071,0l-10.609-10.61
			C248.257,102.991,245.749,101.951,243.079,101.951z" id="id_327"></path>
<path d="M210,332.366c-1.28,0-2.559-0.488-3.536-1.465l-15-15c-1.953-1.952-1.953-5.118,0-7.07l15-15
			c1.953-1.953,5.118-1.953,7.071,0c1.953,1.952,1.953,5.118,0,7.07l-11.464,11.465l11.464,11.465c1.953,1.952,1.953,5.118,0,7.07
			C212.559,331.878,211.28,332.366,210,332.366z" id="id_328"></path>
<path d="M310,332.366c-1.28,0-2.56-0.488-3.536-1.465c-1.952-1.952-1.952-5.118,0-7.07l11.465-11.465l-11.465-11.465
			c-1.952-1.952-1.952-5.118,0-7.07c1.953-1.953,5.118-1.953,7.071,0l15,15c1.953,1.952,1.953,5.118,0,7.07l-15,15
			C312.559,331.878,311.279,332.366,310,332.366z" id="id_329"></path>
<path d="M325,317.366H195c-2.761,0-5-2.238-5-5s2.239-5,5-5h130c2.761,0,5,2.238,5,5S327.761,317.366,325,317.366z" id="id_330"></path>
<path d="M80,142.366c-11.028,0-20-8.972-20-20s8.972-20,20-20s20,8.972,20,20S91.028,142.366,80,142.366z M80,112.366
			c-5.514,0-10,4.486-10,10s4.486,10,10,10s10-4.486,10-10S85.514,112.366,80,112.366z" id="id_331"></path>
<path d="M450,132.366c-16.542,0-30-13.458-30-30s13.458-30,30-30s30,13.458,30,30S466.542,132.366,450,132.366z M450,82.366
			c-11.028,0-20,8.972-20,20s8.972,20,20,20c11.027,0,20-8.972,20-20S461.027,82.366,450,82.366z" id="id_332"></path>
</g>
</g>
<g id="Layer_1">
</g>
</svg>